<svg width="32" height="32" viewBox="0 0 32 32" fill="none" xmlns="http://www.w3.org/2000/svg">
<path d="M3.69548 22.994L1.30148 22.546C1.74948 20.7353 2.21615 19.0973 2.70148 17.632C3.19615 16.1667 3.70482 14.9113 4.22748 13.866C4.75015 12.8207 5.28215 12.018 5.82348 11.458C6.37415 10.8887 6.92482 10.604 7.47548 10.604C8.58615 10.604 9.60815 11.6353 10.5415 13.698C11.4748 15.7513 12.2682 18.7287 12.9215 22.63L10.4435 22.966C10.3315 22.35 10.2102 21.72 10.0795 21.076C9.94882 20.4227 9.81348 19.788 9.67348 19.172C9.44948 19.1627 9.20682 19.158 8.94548 19.158C8.48815 19.158 8.00282 19.1673 7.48948 19.186C6.98548 19.2047 6.48615 19.2373 5.99148 19.284C5.50615 19.3213 5.05348 19.3633 4.63348 19.41C4.45615 20.0073 4.28348 20.614 4.11548 21.23C3.95682 21.8367 3.81682 22.4247 3.69548 22.994ZM6.27148 14.818C6.06615 15.2567 5.79082 15.966 5.44548 16.946C5.84682 16.8993 6.27148 16.8667 6.71948 16.848C7.16748 16.82 7.60615 16.806 8.03549 16.806C8.39948 16.806 8.74948 16.8153 9.08548 16.834C8.95482 16.358 8.82882 15.9333 8.70748 15.56C8.59548 15.1867 8.49282 14.8927 8.39948 14.678C8.20348 14.174 8.03082 13.8193 7.88148 13.614C7.73215 13.3993 7.57815 13.292 7.41948 13.292C7.25148 13.292 7.08348 13.404 6.91548 13.628C6.74748 13.8427 6.53282 14.2393 6.27148 14.818ZM19.2798 23.036C18.1878 23.036 17.2264 22.7793 16.3958 22.266C15.5651 21.7527 14.9164 21.034 14.4498 20.11C13.9924 19.186 13.7638 18.1127 13.7638 16.89C13.7638 15.994 13.9038 15.168 14.1838 14.412C14.4638 13.656 14.8558 12.998 15.3598 12.438C15.8638 11.8687 16.4564 11.43 17.1378 11.122C17.8284 10.814 18.5751 10.66 19.3778 10.66C21.1791 10.66 22.5651 11.2153 23.5358 12.326C24.5158 13.4273 25.0058 14.9953 25.0058 17.03C25.0058 18.4487 24.7071 19.6433 24.1098 20.614C24.5204 20.8847 24.9171 21.09 25.2998 21.23L23.8578 23.092C23.3724 22.8587 22.8964 22.5833 22.4298 22.266C21.5524 22.7793 20.5024 23.036 19.2798 23.036ZM19.2798 20.712C19.4758 20.712 19.6811 20.7027 19.8958 20.684C20.1104 20.6653 20.3251 20.6327 20.5398 20.586C20.1664 20.166 19.8211 19.732 19.5038 19.284C19.1958 18.8267 18.9204 18.3647 18.6778 17.898L20.8478 16.96C20.9598 17.2773 21.1418 17.6227 21.3938 17.996C21.6551 18.3693 21.9584 18.738 22.3038 19.102C22.4251 18.8313 22.5184 18.514 22.5838 18.15C22.6584 17.786 22.6958 17.366 22.6958 16.89C22.6958 15.6207 22.4111 14.6593 21.8418 14.006C21.2724 13.3433 20.4464 13.012 19.3638 13.012C18.3184 13.012 17.5064 13.3713 16.9278 14.09C16.3491 14.8087 16.0598 15.8353 16.0598 17.17C16.0598 17.7953 16.1578 18.332 16.3538 18.78C16.5591 19.228 16.8251 19.5967 17.1518 19.886C17.4784 20.166 17.8284 20.376 18.2018 20.516C18.5751 20.6467 18.9344 20.712 19.2798 20.712ZM26.898 22.966C26.8233 22.4807 26.758 21.8927 26.702 21.202C26.6553 20.5113 26.618 19.76 26.59 18.948C26.5713 18.136 26.562 17.31 26.562 16.47C26.562 15.4153 26.5806 14.3887 26.618 13.39C26.6553 12.3913 26.7113 11.514 26.786 10.758L29.362 10.8C29.2593 11.4627 29.18 12.242 29.124 13.138C29.0773 14.034 29.054 15.0513 29.054 16.19C29.054 17.3473 29.0726 18.5093 29.11 19.676C29.1566 20.8427 29.208 21.9113 29.264 22.882L26.898 22.966Z" fill="url(#paint0_radial_414_760)"/>
<defs>
<radialGradient id="paint0_radial_414_760" cx="0" cy="0" r="1" gradientUnits="userSpaceOnUse" gradientTransform="translate(15.5 16) rotate(90) scale(10 14.5)">
<stop stop-color="#F12424"/>
<stop offset="0.838542" stop-color="#F56969"/>
</radialGradient>
</defs>
</svg>
