<svg width="32" height="32" viewBox="0 0 32 32" fill="none" xmlns="http://www.w3.org/2000/svg">
<path fill-rule="evenodd" clip-rule="evenodd" d="M30.2698 16.3426L28.8106 15.9778C28.469 15.8922 28.1194 16.1018 28.0338 16.4442L28.0258 16.473C27.9402 16.8154 28.1506 17.165 28.4922 17.2506L29.9514 17.6146C30.2938 17.7002 30.6434 17.4906 30.7282 17.149L30.7362 17.1194C30.821 16.7778 30.6114 16.4282 30.2698 16.3426Z" fill="#FF9933"/>
<path fill-rule="evenodd" clip-rule="evenodd" d="M28.5334 9.42071L28.5118 9.39991C28.2582 9.15431 27.851 9.16151 27.6054 9.41511L26.5606 10.4959C26.315 10.7495 26.3222 11.1567 26.5758 11.4023L26.5974 11.4231C26.8502 11.6679 27.2582 11.6615 27.503 11.4079L28.5486 10.3263C28.7934 10.0727 28.787 9.66551 28.5334 9.42071Z" fill="#FF9933"/>
<path fill-rule="evenodd" clip-rule="evenodd" d="M20.6877 9.70392C20.7845 10.0431 21.1413 10.2407 21.4797 10.1439L21.5093 10.1359C21.8477 10.0383 22.0461 9.68232 21.9493 9.34312L21.5357 7.89752C21.4381 7.55832 21.0821 7.36072 20.7429 7.45752L20.7141 7.46552C20.3749 7.56232 20.1773 7.91912 20.2741 8.25752L20.6877 9.70392Z" fill="#FF9933"/>
<path fill-rule="evenodd" clip-rule="evenodd" d="M19.16 10.6207L18.0784 9.57511C17.8256 9.33031 17.4176 9.33671 17.1728 9.59031L17.152 9.61191C16.9072 9.86551 16.9136 10.2727 17.1672 10.5183L18.2488 11.5639C18.5016 11.8087 18.9096 11.8015 19.1544 11.5487L19.176 11.5263C19.4208 11.2727 19.4136 10.8655 19.16 10.6207Z" fill="#FF9933"/>
<path fill-rule="evenodd" clip-rule="evenodd" d="M28.7088 19.8536L27.6272 18.808C27.3744 18.5632 26.9664 18.5696 26.7216 18.8232L26.7008 18.8448C26.456 19.0984 26.4624 19.5056 26.716 19.7512L27.7968 20.7968C28.0504 21.0416 28.4584 21.0344 28.7032 20.7816L28.7248 20.7592C28.9696 20.5056 28.9624 20.0984 28.7088 19.8536Z" fill="#FF9933"/>
<path fill-rule="evenodd" clip-rule="evenodd" d="M27.9885 13.7567C28.0853 14.0959 28.4413 14.2935 28.7805 14.1967L30.2261 13.7831C30.5653 13.6863 30.7637 13.3295 30.6669 12.9903L30.6581 12.9615C30.5613 12.6231 30.2053 12.4247 29.8661 12.5223L28.4197 12.9359C28.0813 13.0327 27.8829 13.3887 27.9797 13.7279L27.9885 13.7567Z" fill="#FF9933"/>
<path fill-rule="evenodd" clip-rule="evenodd" d="M24.1963 10.0903L24.2259 10.0975C24.5675 10.1831 24.9171 9.97352 25.0027 9.63112L25.3675 8.17272C25.4531 7.83032 25.2435 7.48072 24.9011 7.39512L24.8723 7.38792C24.5299 7.30232 24.1803 7.51192 24.0955 7.85432L23.7299 9.31352C23.6451 9.65512 23.8547 10.0047 24.1963 10.0903Z" fill="#FF9933"/>
<path fill-rule="evenodd" clip-rule="evenodd" d="M23.937 11.1915C21.877 10.6763 19.793 11.8115 19.0762 13.7603C19.117 13.7595 19.1562 13.7571 19.197 13.7571C22.1458 13.7571 24.6186 15.8299 25.2378 18.5955C26.0522 18.0467 26.6754 17.2115 26.9322 16.1843C27.4842 13.9779 26.1426 11.7427 23.937 11.1915Z" fill="#FF9933"/>
<path fill-rule="evenodd" clip-rule="evenodd" d="M19.1967 14.8043C18.7447 14.8043 18.3071 14.8627 17.8895 14.9723C17.1071 12.7539 14.9943 11.1651 12.5095 11.1651C9.46392 11.1651 6.97672 13.5507 6.81352 16.5547C6.62712 16.5307 6.43832 16.5131 6.24552 16.5131C3.87592 16.5131 1.95512 18.4339 1.95512 20.8035C1.95512 23.1723 3.87592 25.0939 6.24552 25.0939H19.1967C21.9247 25.0939 24.1503 22.9699 24.3247 20.2851C24.3319 20.1739 24.3415 20.0619 24.3415 19.9491C24.3415 17.1075 22.0375 14.8043 19.1967 14.8043Z" fill="#D0D2D3"/>
</svg>
