<svg width="32" height="32" viewBox="0 0 32 32" fill="none" xmlns="http://www.w3.org/2000/svg">
<path fill-rule="evenodd" clip-rule="evenodd" d="M8.57793 25.5016C8.52913 25.6024 8.50273 25.6592 8.48193 25.7472C8.35713 26.2856 8.72753 26.8328 9.31073 26.968C9.89233 27.1032 10.4659 26.7768 10.5915 26.2376C10.6115 26.1504 10.6171 26.0824 10.6139 25.9752C10.6739 25.088 10.0683 23.7072 10.0683 23.7072C10.0683 23.7072 8.92513 24.668 8.57793 25.5016Z" fill="#26A9E0"/>
<path fill-rule="evenodd" clip-rule="evenodd" d="M11.5963 27.4719C11.5467 27.5727 11.5203 27.6295 11.4995 27.7183C11.3755 28.2567 11.7459 28.8031 12.3283 28.9383C12.9107 29.0735 13.4843 28.7471 13.6099 28.2079C13.6299 28.1199 13.6347 28.0535 13.6315 27.9455C13.6915 27.0583 13.0859 25.6775 13.0859 25.6775C13.0859 25.6775 11.9427 26.6391 11.5963 27.4719Z" fill="#26A9E0"/>
<path fill-rule="evenodd" clip-rule="evenodd" d="M14.3138 25.2176C14.265 25.3184 14.2386 25.3752 14.2186 25.4632C14.093 26.0024 14.4642 26.5488 15.0466 26.684C15.6282 26.8192 16.2026 26.4928 16.3282 25.9536C16.3482 25.8664 16.353 25.7992 16.3506 25.6912C16.409 24.804 15.8042 23.4232 15.8042 23.4232C15.8042 23.4232 14.661 24.3848 14.3138 25.2176Z" fill="#26A9E0"/>
<path fill-rule="evenodd" clip-rule="evenodd" d="M20.6877 6.37897C20.7845 6.71817 21.1413 6.91577 21.4797 6.81897L21.5093 6.81097C21.8477 6.71337 22.0461 6.35737 21.9493 6.01817L21.5357 4.57177C21.4381 4.23337 21.0821 4.03577 20.7429 4.13257L20.7141 4.14057C20.3749 4.23737 20.1773 4.59417 20.2741 4.93257L20.6877 6.37897Z" fill="#FF9933"/>
<path fill-rule="evenodd" clip-rule="evenodd" d="M19.16 7.29579L18.0784 6.25019C17.8256 6.00539 17.4176 6.01179 17.1728 6.26539L17.152 6.28699C16.9072 6.54059 16.9136 6.94779 17.1672 7.19339L18.2488 8.23899C18.5016 8.48379 18.9096 8.47659 19.1544 8.22379L19.176 8.20139C19.4208 7.94779 19.4136 7.54059 19.16 7.29579Z" fill="#FF9933"/>
<path fill-rule="evenodd" clip-rule="evenodd" d="M24.1963 6.76531L24.2259 6.77251C24.5675 6.85811 24.9171 6.64851 25.0027 6.30611L25.3675 4.84771C25.4531 4.50531 25.2435 4.15571 24.9011 4.07011L24.8723 4.06291C24.5299 3.97731 24.1803 4.18691 24.0955 4.52931L23.7299 5.98851C23.6451 6.33011 23.8547 6.67971 24.1963 6.76531Z" fill="#FF9933"/>
<path fill-rule="evenodd" clip-rule="evenodd" d="M23.937 7.8665C21.877 7.3513 19.793 8.4865 19.0762 10.4353C19.117 10.4345 19.1562 10.4321 19.197 10.4321C22.1458 10.4321 24.6186 12.5049 25.2378 15.2705C26.0522 14.7217 26.6754 13.8865 26.9322 12.8593C27.4842 10.6529 26.1426 8.4177 23.937 7.8665Z" fill="#FF9933"/>
<path fill-rule="evenodd" clip-rule="evenodd" d="M30.2698 13.0176L28.8106 12.6528C28.469 12.5672 28.1194 12.7768 28.0338 13.1184L28.0258 13.148C27.9402 13.4904 28.1506 13.84 28.4922 13.9248L29.9514 14.2896C30.2938 14.3752 30.6434 14.1656 30.7282 13.824L30.7362 13.7944C30.821 13.4528 30.6114 13.1032 30.2698 13.0176Z" fill="#FF9933"/>
<path fill-rule="evenodd" clip-rule="evenodd" d="M28.5335 6.09576L28.5119 6.07496C28.2583 5.82936 27.8511 5.83656 27.6055 6.09016L26.5606 7.17096C26.315 7.42456 26.3222 7.83176 26.5758 8.07736L26.5974 8.09816C26.8502 8.34296 27.2583 8.33656 27.5031 8.08296L28.5487 7.00136C28.7935 6.74776 28.7871 6.34056 28.5335 6.09576Z" fill="#FF9933"/>
<path fill-rule="evenodd" clip-rule="evenodd" d="M28.7088 16.5286L27.6272 15.483C27.3744 15.2382 26.9664 15.2446 26.7216 15.4982L26.7008 15.5198C26.456 15.7734 26.4624 16.1806 26.716 16.4262L27.7968 17.4718C28.0504 17.7158 28.4584 17.7094 28.7032 17.4566L28.7248 17.4342C28.9696 17.1806 28.9624 16.7734 28.7088 16.5286Z" fill="#FF9933"/>
<path fill-rule="evenodd" clip-rule="evenodd" d="M27.9885 10.4317C28.0853 10.7709 28.4413 10.9685 28.7805 10.8717L30.2261 10.4581C30.5653 10.3613 30.7637 10.0045 30.6669 9.66531L30.6581 9.63651C30.5613 9.29811 30.2053 9.09971 29.8661 9.19731L28.4197 9.61091C28.0813 9.70771 27.8829 10.0637 27.9797 10.4029L27.9885 10.4317Z" fill="#FF9933"/>
<path fill-rule="evenodd" clip-rule="evenodd" d="M19.1967 11.4794C18.7447 11.4794 18.3071 11.5378 17.8895 11.6474C17.1071 9.42898 14.9943 7.84018 12.5095 7.84018C9.46393 7.84018 6.97673 10.2258 6.81353 13.2298C6.62713 13.2058 6.43833 13.1882 6.24553 13.1882C3.87593 13.1882 1.95513 15.109 1.95513 17.4786C1.95513 19.8474 3.87593 21.769 6.24553 21.769H19.1967C21.9247 21.769 24.1503 19.6442 24.3247 16.9602C24.3319 16.8482 24.3415 16.737 24.3415 16.6242C24.3415 13.7818 22.0375 11.4794 19.1967 11.4794Z" fill="#D0D2D3"/>
</svg>
