<svg width="32" height="32" viewBox="0 0 32 32" fill="none" xmlns="http://www.w3.org/2000/svg">
<path fill-rule="evenodd" clip-rule="evenodd" d="M9.3209 24.6751C9.2713 24.7775 9.2449 24.8351 9.2241 24.9239C9.0985 25.4663 9.4713 26.0167 10.0585 26.1535C10.6449 26.2895 11.2225 25.9607 11.3497 25.4175C11.3697 25.3279 11.3745 25.2615 11.3721 25.1535C11.4321 24.2591 10.8217 22.8687 10.8217 22.8687C10.8217 22.8687 9.6705 23.8367 9.3209 24.6751Z" fill="#26A9E0"/>
<path fill-rule="evenodd" clip-rule="evenodd" d="M12.3615 26.6605C12.3119 26.7629 12.2855 26.8205 12.2639 26.9085C12.1391 27.4517 12.5119 28.0029 13.0991 28.1373C13.6855 28.2749 14.2639 27.9453 14.3911 27.4029C14.4103 27.3133 14.4151 27.2461 14.4127 27.1373C14.4719 26.2437 13.8615 24.8541 13.8615 24.8541C13.8615 24.8541 12.7111 25.8213 12.3615 26.6605Z" fill="#26A9E0"/>
<path fill-rule="evenodd" clip-rule="evenodd" d="M15.0994 24.3906C15.0506 24.4906 15.0234 24.5482 15.0026 24.637C14.877 25.1794 15.2506 25.7314 15.837 25.8674C16.4234 26.0034 17.0018 25.6738 17.129 25.1314C17.149 25.0434 17.153 24.9746 17.1506 24.8666C17.2106 23.973 16.601 22.5818 16.601 22.5818C16.601 22.5818 15.449 23.5514 15.0994 24.3906Z" fill="#26A9E0"/>
<path fill-rule="evenodd" clip-rule="evenodd" d="M19.2115 11.1481C18.7803 11.1481 18.3627 11.2041 17.9635 11.3081C17.2171 9.19128 15.2003 7.67368 12.8283 7.67368C9.92194 7.67368 7.54754 9.95128 7.39234 12.8185C7.21394 12.7953 7.03394 12.7793 6.84994 12.7793C4.58834 12.7793 2.75474 14.6121 2.75474 16.8737C2.75474 19.1353 4.58834 20.9689 6.84994 20.9689H19.2115C21.8155 20.9689 23.9395 18.9409 24.1059 16.3793C24.1123 16.2729 24.1219 16.1665 24.1219 16.0585C24.1219 13.3457 21.9235 11.1481 19.2115 11.1481Z" fill="#D0D2D3"/>
<path fill-rule="evenodd" clip-rule="evenodd" d="M29.8389 13.9207C29.7917 13.8367 29.6973 13.7895 29.6013 13.8023C29.3437 13.8367 29.0885 13.8543 28.8421 13.8543C25.7165 13.8543 23.1741 11.3111 23.1741 8.18551C23.1741 6.88631 23.6253 5.61591 24.4453 4.60871C24.5069 4.53351 24.5165 4.42871 24.4685 4.34391C24.4213 4.25911 24.3261 4.21271 24.2309 4.22471C21.2309 4.62631 18.9645 7.19031 18.9149 10.2095C19.0141 10.2047 19.1125 10.2015 19.2117 10.2015C22.4405 10.2015 25.0685 12.8287 25.0685 16.0583C25.0685 16.1911 25.0629 16.3215 25.0541 16.4519C26.9077 16.4519 28.6437 15.6255 29.8157 14.1863C29.8765 14.1103 29.8861 14.0055 29.8389 13.9207Z" fill="#FF9933"/>
</svg>
