<svg width="32" height="32" viewBox="0 0 32 32" fill="none" xmlns="http://www.w3.org/2000/svg">
<path fill-rule="evenodd" clip-rule="evenodd" d="M25.0672 21.3287C24.9972 21.2047 24.8592 21.1367 24.7182 21.1547C24.3412 21.2047 23.9662 21.2307 23.6062 21.2307C19.0242 21.2307 15.2962 17.5027 15.2962 12.9217C15.2962 11.0157 15.9592 9.15471 17.1612 7.67871C17.2512 7.56771 17.2642 7.41371 17.1942 7.28971C17.1252 7.16571 16.9862 7.09771 16.8462 7.11571C12.4002 7.71071 9.0462 11.5457 9.0462 16.0367C9.0462 21.0007 13.0862 25.0397 18.0492 25.0397C20.7692 25.0397 23.3142 23.8287 25.0332 21.7177C25.1232 21.6067 25.1362 21.4527 25.0672 21.3287Z" fill="#FF9933"/>
</svg>
