<svg width="32" height="32" viewBox="0 0 32 32" fill="none" xmlns="http://www.w3.org/2000/svg">
<path fill-rule="evenodd" clip-rule="evenodd" d="M20.0115 13.4938C19.5803 13.4938 19.1627 13.5498 18.7635 13.6538C18.0171 11.537 16.0003 10.0194 13.6283 10.0194C10.7219 10.0194 8.34752 12.297 8.19232 15.1642C8.01392 15.141 7.83392 15.125 7.64992 15.125C5.38832 15.125 3.55472 16.9578 3.55472 19.2194C3.55472 21.481 5.38832 23.3146 7.64992 23.3146H20.0115C22.6155 23.3146 24.7395 21.2866 24.9059 18.725C24.9123 18.6186 24.9219 18.5122 24.9219 18.4042C24.9219 15.6914 22.7235 13.4938 20.0115 13.4938Z" fill="#D0D2D3"/>
<path fill-rule="evenodd" clip-rule="evenodd" d="M30.6389 16.2665C30.5917 16.1825 30.4973 16.1353 30.4013 16.1481C30.1437 16.1825 29.8885 16.2001 29.6421 16.2001C26.5165 16.2001 23.9741 13.6569 23.9741 10.5313C23.9741 9.23208 24.4253 7.96168 25.2453 6.95448C25.3069 6.87928 25.3165 6.77448 25.2685 6.68968C25.2213 6.60568 25.1261 6.55848 25.0309 6.57048C22.0309 6.97208 19.7645 9.53608 19.7149 12.5553C19.8141 12.5505 19.9125 12.5473 20.0117 12.5473C23.2405 12.5473 25.8685 15.1745 25.8685 18.4041C25.8685 18.5369 25.8629 18.6673 25.8541 18.7977C27.7077 18.7977 29.4437 17.9713 30.6157 16.5321C30.6765 16.4561 30.6861 16.3513 30.6389 16.2665Z" fill="#FF9933"/>
</svg>
