<svg width="32" height="32" viewBox="0 0 32 32" fill="none" xmlns="http://www.w3.org/2000/svg">
<path fill-rule="evenodd" clip-rule="evenodd" d="M14.0159 20.7356C14.0159 20.7356 10.9143 22.2644 10.4071 22.5828C9.89826 22.9028 9.70466 23.0508 9.45506 23.4188C8.66946 24.574 8.96946 26.1468 10.1247 26.9316C11.2791 27.7164 12.8519 27.4164 13.6367 26.262C13.8927 25.8852 13.9351 25.678 14.0655 25.042C14.1967 24.406 14.4135 21.0036 14.4135 21.0036C14.4367 20.7324 14.2583 20.6124 14.0159 20.7356Z" fill="#26A9E0"/>
<path fill-rule="evenodd" clip-rule="evenodd" d="M21.6111 8.99417C21.1807 8.99417 20.7615 9.05017 20.3631 9.15417C19.6175 7.03737 17.5999 5.52057 15.2279 5.52057C12.3223 5.52057 9.94792 7.79737 9.79192 10.6646C9.61432 10.6414 9.43352 10.6254 9.24952 10.6254C6.98792 10.6254 5.15512 12.4582 5.15512 14.7198C5.15512 16.9814 6.98792 18.815 9.24952 18.815H21.6111C24.3239 18.815 26.5223 16.6166 26.5223 13.9046C26.5223 11.1918 24.3239 8.99417 21.6111 8.99417Z" fill="#D0D2D3"/>
<path fill-rule="evenodd" clip-rule="evenodd" d="M20.1837 20.6891C18.5941 20.6891 17.3045 21.9779 17.3045 23.5675C17.3045 25.1579 18.5941 26.4467 20.1837 26.4467C21.7733 26.4467 23.0629 25.1579 23.0629 23.5675C23.0629 21.9779 21.7733 20.6891 20.1837 20.6891Z" fill="#26A9E0"/>
</svg>
