<svg width="32" height="32" viewBox="0 0 32 32" fill="none" xmlns="http://www.w3.org/2000/svg">
<path fill-rule="evenodd" clip-rule="evenodd" d="M4.3869 13.2494C4.2298 13.557 4.14482 13.7304 4.07786 13.999C3.67611 15.6422 4.86848 17.3123 6.74589 17.725C8.61815 18.1376 10.4647 17.1414 10.869 15.4957C10.9334 15.2296 10.9514 15.022 10.9411 14.6949C11.1342 11.987 9.18472 7.77271 9.18472 7.77271C9.18472 7.77271 5.50459 10.7052 4.3869 13.2494" fill="#26A9E0"/>
<path fill-rule="evenodd" clip-rule="evenodd" d="M13.6611 19.4313C13.5014 19.7389 13.4164 19.9123 13.3495 20.1833C12.9502 21.8266 14.1428 23.4942 16.0178 23.9069C17.8929 24.3195 19.7396 23.3233 20.144 21.6776C20.2084 21.409 20.2238 21.2064 20.2135 20.8767C20.4067 18.1689 18.457 13.9546 18.457 13.9546C18.457 13.9546 14.7764 16.8895 13.6611 19.4313" fill="#26A9E0"/>
<path fill-rule="evenodd" clip-rule="evenodd" d="M22.1576 12.4767C22.0005 12.7843 21.9155 12.9577 21.8511 13.2263C21.4468 14.872 22.6417 16.5396 24.5165 16.9523C26.3887 17.3649 28.2378 16.3687 28.6421 14.723C28.7065 14.4569 28.7219 14.2518 28.7142 13.9222C28.9022 11.2143 26.9553 7 26.9553 7C26.9553 7 23.2752 9.93489 22.1576 12.4767" fill="#26A9E0"/>
</svg>
