<svg width="32" height="32" viewBox="0 0 32 32" fill="none" xmlns="http://www.w3.org/2000/svg">
<path fill-rule="evenodd" clip-rule="evenodd" d="M21.6111 7.418C21.1807 7.418 20.7615 7.474 20.3631 7.578C19.6175 5.4612 17.5999 3.9444 15.2279 3.9444C12.3223 3.9444 9.94712 6.2212 9.79192 9.0884C9.61352 9.066 9.43352 9.0492 9.24952 9.0492C6.98792 9.0492 5.15512 10.882 5.15512 13.1436C5.15512 15.4052 6.98792 17.2388 9.24952 17.2388H21.6111C24.3239 17.2388 26.5223 15.0404 26.5223 12.3284C26.5223 9.6164 24.3239 7.418 21.6111 7.418Z" fill="#D0D2D3"/>
<path fill-rule="evenodd" clip-rule="evenodd" d="M14.0341 19.1883C14.0341 19.1883 10.9325 20.7171 10.4253 21.0363C9.91651 21.3555 9.72291 21.5035 9.47331 21.8723C8.68771 23.0267 8.98771 24.5995 10.1429 25.3843C11.2981 26.1691 12.8701 25.8699 13.6549 24.7155C13.9109 24.3387 13.9533 24.1315 14.0837 23.4947C14.2141 22.8587 14.4325 19.4563 14.4325 19.4563C14.4549 19.1859 14.2765 19.0651 14.0341 19.1883Z" fill="#26A9E0"/>
<path fill-rule="evenodd" clip-rule="evenodd" d="M23.3275 23.1082L20.2915 23.1882L22.2603 19.4778C22.2923 19.4186 22.2851 19.3498 22.2419 19.2946C22.1987 19.2402 22.1251 19.2066 22.0443 19.205L18.7155 19.1586C18.6171 19.1658 18.5187 19.2106 18.4851 19.2914L15.9547 25.365C15.9307 25.425 15.9435 25.4906 15.9883 25.5418C16.0331 25.5922 16.1051 25.6226 16.1811 25.6226H16.1835L19.1899 25.605L17.9539 29.525C17.9251 29.617 17.9811 29.713 18.0883 29.7514C18.1195 29.7634 18.1523 29.769 18.1851 29.769C18.2635 29.769 18.3395 29.7378 18.3843 29.6826L23.5339 23.4114C23.5835 23.3514 23.5883 23.273 23.5443 23.2082C23.5011 23.1442 23.4155 23.1018 23.3275 23.1082Z" fill="#FF9933"/>
</svg>
