<svg width="32" height="32" viewBox="0 0 32 32" fill="none" xmlns="http://www.w3.org/2000/svg">
<path fill-rule="evenodd" clip-rule="evenodd" d="M14.4979 18.1901H4.89473C4.72273 18.1901 4.54833 18.2069 4.37953 18.1837C3.87073 18.1125 3.44033 17.9133 3.45393 17.3149C3.46673 16.7165 3.88433 16.5133 4.41633 16.5117C6.32993 16.5045 8.24273 16.5045 10.1563 16.5053C14.8643 16.5061 19.5739 16.5125 24.2819 16.5069C25.7811 16.5045 26.8571 15.4421 26.8387 14.0237C26.8219 12.6853 25.7419 11.6285 24.3947 11.6325C23.0403 11.6365 21.9627 12.7645 22.0035 14.1397C22.0091 14.3109 22.0427 14.4813 22.0547 14.6525C22.0915 15.1749 21.8883 15.5469 21.3451 15.6261C20.7995 15.7053 20.4779 15.3949 20.3875 14.8893C20.2243 13.9821 20.2971 13.0949 20.7219 12.2533C21.6235 10.4725 23.5467 9.5925 25.4803 10.0861C27.3403 10.5605 28.5819 12.2749 28.5155 14.2757C28.4531 16.1797 27.0747 17.7973 25.1251 18.0877C24.1147 18.2389 23.0723 18.2013 22.0443 18.2069C19.5291 18.2221 17.0131 18.2117 14.4979 18.2117V18.1901Z" fill="#FF9933"/>
<path fill-rule="evenodd" clip-rule="evenodd" d="M14.4135 20.2525C16.7335 20.2525 19.0543 20.2533 21.3743 20.2517C22.9311 20.2517 24.2359 21.3517 24.3631 22.8029C24.5223 24.6309 23.5407 25.7261 21.9167 26.0437C20.3831 26.3429 18.9783 25.3469 18.6647 23.8141C18.5695 23.3461 18.7367 23.0037 19.1863 22.8469C19.6343 22.6909 19.9839 22.8597 20.2183 23.2637C20.2719 23.3557 20.2999 23.4621 20.3407 23.5605C20.6103 24.2061 21.0903 24.4781 21.7031 24.3333C22.3663 24.1757 22.7527 23.6645 22.6887 23.0285C22.6271 22.4117 22.1335 21.9581 21.4535 21.9533C19.3911 21.9405 17.3287 21.9477 15.2663 21.9477C12.6255 21.9485 9.98386 21.9493 7.34386 21.9493C7.21426 21.9493 7.08466 21.9573 6.95746 21.9421C6.45746 21.8837 6.09346 21.6525 6.05586 21.1101C6.02466 20.6533 6.43586 20.2837 7.00626 20.2765C8.42226 20.2605 9.83906 20.2693 11.2551 20.2685C12.3079 20.2677 13.3607 20.2677 14.4135 20.2677V20.2525Z" fill="#FF9933"/>
<path fill-rule="evenodd" clip-rule="evenodd" d="M11.3564 14.472C9.96044 14.472 8.56444 14.4776 7.16924 14.4688C6.48444 14.4648 6.06124 14.1472 6.05004 13.6648C6.03804 13.1488 6.47804 12.796 7.18364 12.7944C9.89004 12.7904 12.5964 12.7984 15.3028 12.7944C16.0364 12.7928 16.558 12.3592 16.6196 11.7352C16.682 11.108 16.2812 10.5448 15.6612 10.3888C15.0596 10.2376 14.5132 10.5632 14.2268 11.284C14.0236 11.7944 13.706 12.0688 13.1428 11.9016C12.6188 11.7456 12.4452 11.2744 12.654 10.636C13.0036 9.56241 14.0724 8.74161 15.2076 8.67361C16.4196 8.60161 17.5668 9.29041 18.054 10.3848C18.9172 12.324 17.5532 14.4512 15.418 14.4744C14.0644 14.4896 12.71 14.4776 11.3564 14.4776V14.472Z" fill="#FF9933"/>
</svg>
